# xmcd
#
# Track frame offsets:
#	150
#	20777
#	38542
#	59136
#	82896
#	107136
#	130586
#	154735
#	174161
#	194890
#	214520
#
# Disc length: 2937 seconds
#
# Revision: 0
# Processed by: cddbd v1.4PL0 Copyright (c) Steve Scherf et al.
# Submitted via: dBpowerAMP V4.0
#
DISCID=910b770b
DTITLE=Lighthouse Family - Postcards From Heaven
DYEAR=1998
DGENRE=
TTITLE0=Raincloud
TTITLE1=Once In A Blue Moon
TTITLE2=Question Of Faith
TTITLE3=Let It All Change
TTITLE4=Sun In The Night
TTITLE5=High
TTITLE6=Lost In Space
TTITLE7=When I Was Younger
TTITLE8=Restless
TTITLE9=Postcard From Heaven
TTITLE10=Bonus Track
EXTD=
EXTT0=
EXTT1=
EXTT2=
EXTT3=
EXTT4=
EXTT5=
EXTT6=
EXTT7=
EXTT8=
EXTT9=
EXTT10=
PLAYORDER=
